___________________________________________________________________________________


Format                                   : MPEG-4

Format profile                           : Base Media

Codec ID                                 : isom

File size                                : 550 MiB

Duration                                 : 1h 23mn

Overall bit rate mode                    : Variable

Overall bit rate                         : 922 Kbps

Encoded date                             : UTC 2011-12-13 04:29:44

Tagged date                              : UTC 2011-12-13 04:29:44

-----------------------------------------------------------------------------------

Video

ID                                       : 1

Format                                   : AVC

Format/Info                              : Advanced Video Codec

Format profile                           : High@L3.1

Format settings, CABAC                   : Yes

Format settings, ReFrames                : 5 frames

Codec ID                                 : avc1

Codec ID/Info                            : Advanced Video Coding

Duration                                 : 1h 23mn

Bit rate                                 : 856 Kbps

Maximum bit rate                         : 8 893 Kbps

Width                                    : 1 280 pixels

Height                                   : 720 pixels

Display aspect ratio                     : 16:9

Frame rate mode                          : Constant

Frame rate                               : 23.976 fps

Color space                              : YUV

Chroma subsampling                       : 4:2:0

Bit depth                                : 8 bits

Scan type                                : Progressive

Bits/(Pixel*Frame)                       : 0.039

Stream size                              : 510 MiB (93%)

Writing library                          : x264 core 116 r2074 2641b9e

-----------------------------------------------------------------------------------

Audio:

ID                                       : 2

Format                                   : AAC

Format/Info                              : Advanced Audio Codec

Format profile                           : HE-AAC / LC

Codec ID                                 : 40

Duration                                 : 1h 23mn

Bit rate mode                            : Variable

Bit rate                                 : 63.9 Kbps

Maximum bit rate                         : 75.5 Kbps

Channel(s)                               : 2 channels

Channel positions                        : Front: L R

Sampling rate                            : 22.05 KHz / 11.025 KHz

Compression mode                         : Lossy

Stream size                              : 38.2 MiB (7%)

Encoded date                             : UTC 2011-12-13 04:29:51

Tagged date                              : UTC 2011-12-13 04:29:52

-----------------------------------------------------------------------------------

Subtitle Info:

Type                                     : EXTERNAL [SRT]

Language                                 : English

FPS                                      : 23.976 FPS
___________________________________________________________________________________

Plz Seed The Torrent Guyz! Don't Kill It!
___________________________________________________________________________________

Any Requests For Movies , TV Shows Are Welcome
___________________________________________________________________________________

- Nexus Wolf
___________________________________________________________________________________